<?xml version="1.0" encoding="UTF-8"?><svg xmlns="http://www.w3.org/2000/svg" xmlns:xlink="http://www.w3.org/1999/xlink" viewBox="0 0 1024 1024"><defs><style>.cls-1{fill:url(#linear-gradient);}.cls-2{fill:#ff0080;}</style><linearGradient id="linear-gradient" x1="0" y1="0" x2="1024" y2="1024" gradientUnits="userSpaceOnUse"><stop offset="0" stop-color="#16213e"/><stop offset=".31" stop-color="#1e1a3f"/><stop offset=".8" stop-color="#340944"/><stop offset="1" stop-color="#400147"/></linearGradient></defs><g id="Layer_2"><rect class="cls-1" y="0" width="1024" height="1024"/></g><g id="Layer_1"><path class="cls-2" d="M823.78,374.43l41.86-104.71-127.96-111.72-81.45,74.48h-288.6l-81.45-74.48-127.96,111.72,41.86,104.71-55.84,316.47,265.29,174.52h204.8l265.29-174.52-55.84-316.47ZM593.38,832.84l-81.45-44.21-81.45,44.21-244.34-160.54,53.53-290.9,120.99-111.67h302.53l120.99,111.67,53.53,290.9-244.34,160.54Z"/><polygon class="cls-2" points="511.93 712.61 426.59 712.61 511.93 788.63 597.27 712.61 511.93 712.61"/><polygon class="cls-2" points="583.29 597.05 687.27 700.98 743.88 559.81 583.29 418.63 583.29 597.05"/><polygon class="cls-2" points="336.59 700.98 440.57 597.05 440.57 418.63 279.98 559.81 336.59 700.98"/></g></svg>