<?xml version="1.0" encoding="UTF-8"?>
<svg width="512pt" height="512pt" version="1.1" viewBox="0 0 512 512" xmlns="http://www.w3.org/2000/svg">
 <path d="m508.68 163.92c-4.4805-81.32-40.621-134.68-101.22-150.18l-1.3398-0.37891h-0.058594c-24.961-7.3008-51.441-9.6602-74.156-11.059-50.621-2.4414-117.34-4.2812-184.52 2.8789-94.34 9.2812-140.34 63.34-144.82 170.2-3.0781 67.18-5.2383 138.52 5.3203 207.56 19.141 126.36 136.02 127.78 229.96 128.92h18.68c127.72-0.37891 248.38-0.76172 253.18-178.26 3.2617-60.781 2.9414-116.32-1.0781-169.62zm-24.52 168.6c-4.1602 153.04-97.961 153.3-227.72 153.68h-18.297c-92.957-1.1602-189.08-2.3008-205-107.18-10.238-66.738-8.1211-136.6-5.0586-202.58 3.9609-94.238 40.379-137.88 121.82-145.88 34.559-3.6406 69.039-4.9219 101.16-4.9219 28.918 0 55.922 1.0195 79.34 2.1211 21.121 1.2812 45.82 3.4609 68.34 10.102l1.7188 0.51953c66.602 17.078 80.301 86.82 82.539 127.2 3.9609 52.398 4.2812 106.92 1.0781 166.88z" fill="#ff007f"/>
 <path d="m366.12 244.68c-51.316-21.762-75.621-45.039-97.383-95.277-8.2617-20.422-15.219-27.262-25.141-2.8789-21.699 51.957-47.602 76.719-98.602 98.16-5.1211 2.3594-14.34 6.4609-14.398 11.32 0.058594 4.8594 9.2188 8.9609 14.398 11.32 50.941 21.379 76.902 46.199 98.602 98.16 10.039 24.82 17.02 17.02 25.141-2.8789 21.762-50.219 46.059-73.52 97.383-95.277 5.3789-2.5586 14.262-5.9609 15.16-11.059v-0.57812c-0.89844-5.0586-9.7188-8.5-15.16-11.059z" fill="#ff007f"/>
</svg>
