<?xml version="1.0" encoding="UTF-8"?>
<svg width="512pt" height="512pt" version="1.1" viewBox="0 0 512 512" xmlns="http://www.w3.org/2000/svg">
 <path d="m341.33 282.67h-170.66c-5.7188 0-11 3.0469-13.859 8-2.8555 4.9492-2.8555 11.047 0 16 2.8594 4.9492 8.1406 8 13.859 8h170.67-0.003907c5.7188 0 11-3.0508 13.859-8 2.8555-4.9531 2.8555-11.051 0-16-2.8594-4.9531-8.1406-8-13.859-8z" fill="currentColor"/>
 <path d="m341.33 368h-170.66c-5.7188 0-11 3.0508-13.859 8-2.8555 4.9492-2.8555 11.051 0 16 2.8594 4.9492 8.1406 8 13.859 8h170.67-0.003907c5.7188 0 11-3.0508 13.859-8 2.8555-4.9492 2.8555-11.051 0-16-2.8594-4.9492-8.1406-8-13.859-8z" fill="currentColor"/>
 <path d="m341.33 197.33h-170.66c-5.7188 0-11 3.0508-13.859 8-2.8555 4.9531-2.8555 11.051 0 16 2.8594 4.9531 8.1406 8 13.859 8h170.67-0.003907c5.7188 0 11-3.0469 13.859-8 2.8555-4.9492 2.8555-11.047 0-16-2.8594-4.9492-8.1406-8-13.859-8z" fill="currentColor"/>
 <path d="m384 48h-30.422c-3.0117-6.3633-7.7656-11.742-13.707-15.52-5.9414-3.7734-12.832-5.7891-19.871-5.8125h-128c-7.0391 0.023437-13.93 2.0391-19.871 5.8125-5.9414 3.7773-10.695 9.1562-13.707 15.52h-30.422c-15.555 0.011719-30.473 6.1953-41.473 17.195s-17.184 25.914-17.195 41.473v320c0.011719 15.555 6.1953 30.469 17.195 41.469s25.918 17.184 41.473 17.195h256c15.555-0.011719 30.473-6.1953 41.473-17.195s17.184-25.914 17.195-41.469v-320c-0.011719-15.559-6.1953-30.473-17.195-41.473s-25.918-17.184-41.473-17.195zm-192 10.668h128c1.4141 0 2.7695 0.5625 3.7695 1.5625s1.5625 2.3555 1.5625 3.7695v42.668c0 1.4141-0.5625 2.7695-1.5625 3.7695s-2.3555 1.5625-3.7695 1.5625h-128c-2.9453 0-5.332-2.3867-5.332-5.332v-42.668c0-2.9453 2.3867-5.332 5.332-5.332zm218.67 368c-0.011719 7.0664-2.8242 13.844-7.8242 18.844-5 4.9961-11.773 7.8086-18.844 7.8203h-256c-7.0703-0.011719-13.844-2.8242-18.844-7.8203-5-5-7.8125-11.777-7.8242-18.844v-320c0.011719-7.0703 2.8242-13.848 7.8242-18.844 5-5 11.773-7.8125 18.844-7.8242h26.668v26.668c0.011719 9.8984 3.9453 19.387 10.945 26.387 7 6.9961 16.488 10.934 26.387 10.945h128c9.8984-0.011719 19.387-3.9492 26.387-10.945 7-7 10.934-16.488 10.945-26.387v-26.668h26.668c7.0703 0.011719 13.844 2.8242 18.844 7.8242 5 4.9961 7.8125 11.773 7.8242 18.844z" fill="currentColor"/>
</svg>
