<?xml version="1.0" encoding="UTF-8"?>
<svg width="512pt" height="512pt" version="1.1" viewBox="0 0 512 512" xmlns="http://www.w3.org/2000/svg">
 <path d="m151.34 436.82c13.66 15.52 33.418 24.281 54.078 23.98h101.12c20.578 0.32031 40.301-8.3594 53.938-23.781 54.199-53.5 63.684-115.48 28.16-184.22-2.9414-5.6016-3.2188-12.238-0.76172-18.078 7.9219-20.52 12.801-42.102 14.5-64.039 1.4609-13.059 0.5-26.281-2.8008-39-14.539-50.66-61.441-76.98-143.82-80.48-81.961 3.5-128.88 29.82-143.36 80.48-3.3008 12.719-4.2617 25.941-2.8008 39 1.6797 21.941 6.5586 43.5 14.5 64 2.4414 5.8594 2.1602 12.5-0.76172 18.141-35.5 68.719-26 130.7 28 184zm37.918-313.8c14.441-9.0391 35.719-13.18 66.738-12.98h0.058594c31.059-0.19922 52.219 3.9414 66.68 12.98h-0.019531c13.199 8.8008 20.781 23.941 19.879 39.801-0.80078 19.039-5.8984 33.762-15.078 43.699-1.5586 1.7188-4 2.3008-6.1602 1.4609-20.781-8.3594-42.84-13.039-65.219-13.82-0.058594 0-0.10156 0.058594-0.16016 0.058594-0.058594 0-0.039063-0.058594-0.10156-0.058594-22.379 0.78125-44.461 5.4609-65.238 13.82-2.1406 0.83984-4.6016 0.26172-6.1406-1.4609-9.1992-9.9414-14.281-24.68-15.078-43.699-0.89844-15.84 6.6406-30.98 19.82-39.801z" fill="#ff007f"/>
</svg>
