<?xml version="1.0" encoding="UTF-8"?>
<svg width="512pt" height="512pt" version="1.1" viewBox="0 0 512 512" xmlns="http://www.w3.org/2000/svg">
 <path d="m315.78 35.262h8.9805c15.781 0 30.102 6.4414 40.48 16.801 10.359 10.359 16.801 24.699 16.801 40.48v102.64c0 6.5-5.2617 11.762-11.762 11.762s-11.762-5.2617-11.762-11.762v-102.64c0-9.3008-3.8008-17.719-9.8984-23.84-6.1211-6.1211-14.559-9.8984-23.84-9.8984h-8.9219c-0.64062 8.1406-4.2383 15.5-9.6992 20.961-0.26172 0.26172-0.51953 0.5-0.80078 0.71875-5.9805 5.6016-14 9.0781-22.781 9.0781h-140.4c-9.1602 0-17.5-3.7383-23.539-9.8008l-0.039063-0.039063-0.019531 0.039063c-5.4609-5.4609-9.0391-12.82-9.6992-20.961h-8.9219c-9.3008 0-17.719 3.8008-23.84 9.8984-6.1211 6.1211-9.8984 14.559-9.8984 23.84v270.94c0 9.3008 3.8008 17.719 9.8984 23.859 6.1211 6.1211 14.559 9.8984 23.84 9.8984h146.08c6.5 0 11.762 5.2617 11.762 11.762s-5.2617 11.762-11.762 11.762h-146.08c-15.781 0-30.102-6.4414-40.48-16.801-10.359-10.359-16.801-24.699-16.801-40.48v-270.94c0-15.781 6.4414-30.102 16.801-40.48 10.359-10.359 24.699-16.801 40.48-16.801h8.9805c0.76172-7.8984 4.3203-15 9.6406-20.32 0.26172-0.26172 0.51953-0.5 0.80078-0.71875 5.9805-5.6211 14-9.0781 22.801-9.0781h140.4c9.1602 0 17.5 3.7383 23.539 9.8008l0.019531 0.039063 0.039063-0.039063c5.3203 5.3203 8.8594 12.422 9.6406 20.32zm-165.46 317.7c-4.7812-4.3594-5.1016-11.762-0.73828-16.52 4.3594-4.7812 11.762-5.1016 16.539-0.73828l7.5 6.8594 16.199-25c3.5391-5.4414 10.781-6.9805 16.219-3.4414 5.4414 3.5391 6.9805 10.781 3.4414 16.219l-23.719 36.578h-0.019531c-0.35938 0.53906-0.73828 1.0391-1.1797 1.5195-4.3594 4.7812-11.762 5.1016-16.52 0.73828l-17.719-16.18zm35.48-201.38c-4.6016-4.6016-4.6016-12.039 0-16.641 4.6016-4.6016 12.02-4.6016 16.641 0l14.102 14.121 14.121-14.121c4.6016-4.6016 12.02-4.6016 16.641 0 4.6016 4.6016 4.6016 12.039 0 16.641l-14.121 14.121 14.121 14.102c4.6016 4.6016 4.6016 12.039 0 16.641-4.6016 4.6016-12.039 4.6016-16.641 0l-14.121-14.121-14.102 14.121c-4.6016 4.6016-12.039 4.6016-16.641 0-4.6016-4.6016-4.6016-12.039 0-16.641l14.121-14.102zm-61.723 178.22c-3.2383 5.6016-10.422 7.5195-16.039 4.2812-5.6016-3.2383-7.5195-10.422-4.2812-16.039l53.5-92.66c3.2383-5.6016 10.422-7.5195 16.039-4.2812 0.89844 0.51953 1.6992 1.1602 2.4219 1.8594l0.019532-0.019532 75.98 75.98 47.699-178.08c1.6797-6.2617 8.1211-9.9805 14.379-8.3008 6.2617 1.6797 9.9805 8.1211 8.3008 14.379l-52.84 197.16c-0.46094 2.1602-1.5195 4.1992-3.1797 5.8594-4.6016 4.6016-12.039 4.6016-16.641 0l-79.559-79.559-45.859 79.422zm150.76 166.16-3.6016-50.16c-0.17969-2.6211 0.5-5.0781 1.8203-7.1211l121.8-210.96c0.16016-0.26172 0.30078-0.5 0.48047-0.76172 5.5391-9.1211 14.199-15.262 23.781-17.82 9.8594-2.6406 20.762-1.5391 30.301 3.9805 9.5195 5.5 15.922 14.379 18.578 24.238 2.6406 9.8594 1.5391 20.762-3.9805 30.301l-0.37891 0.62109-121.66 210.74c-1.1797 2.0195-2.9414 3.6992-5.0586 4.7383l-45.238 21.961c-5.8398 2.8203-12.84 0.35938-15.66-5.4609-0.66016-1.3789-1.0391-2.8203-1.1406-4.2812z" fill="currentColor"/>
</svg>
