<?xml version="1.0" encoding="UTF-8"?>
<svg width="512pt" height="512pt" version="1.1" viewBox="0 0 512 512" xmlns="http://www.w3.org/2000/svg">
 <path d="m221.42 23.898c22.398-11.602 49.199-11.219 71.32 1.1602l150.44 84.262c22.738 12.719 36.82 36.762 36.82 62.824v167.72c0 25.238-13.219 48.582-34.719 61.598l-2.1016 1.2188-150.44 84.238c-22.121 12.398-48.922 12.781-71.32 1.1797l-2.1602-1.1797-150.44-84.238c-22.02-12.34-35.941-35.262-36.781-60.379l-0.039062-2.4414v-167.72c0-26.059 14.078-50.102 36.82-62.824l150.44-84.262zm-141.42 315.96 0.058594 1.6211c0.53906 8.0586 5.1016 15.34 12.219 19.32l139.72 78.238v-170.46c-4.3594-1.4805-8.6406-3.3594-12.738-5.6602l-139.26-77.977zm212.74-76.938c-4.1016 2.3008-8.3789 4.1797-12.738 5.6602v170.46l139.72-78.238 1.3984-0.83984c6.7617-4.3984 10.879-11.961 10.879-20.102v-154.92zm-23.461-195.96c-7.7188-4.3398-17.059-4.6211-25-0.82031l-1.5586 0.82031-137.6 77.039 137.6 77.039c8.2383 4.6211 18.32 4.6211 26.559 0l137.6-77.039z" fill="#ff007f"/>
</svg>
